<svg xmlns="http://www.w3.org/2000/svg" viewBox="0 0 1600 620" preserveAspectRatio="xMidYMid slice">
<defs><linearGradient id="bg" x1="0" x2="1"><stop stop-color="#f7f1e9"/><stop offset="1" stop-color="#dcc39a"/></linearGradient><radialGradient id="orb"><stop stop-color="#fff" stop-opacity=".65"/><stop offset="1" stop-color="#fff" stop-opacity="0"/></radialGradient><linearGradient id="gold"><stop stop-color="#80602e"/><stop offset=".45" stop-color="#d9b66e"/><stop offset="1" stop-color="#9b7336"/></linearGradient></defs>
<rect width="1600" height="620" fill="url(#bg)"/><circle cx="1270" cy="130" r="280" fill="url(#orb)"/><circle cx="250" cy="560" r="250" fill="#fff" opacity=".18"/>
<text x="120" y="150" fill="#b98a3d" font-family="Arial" font-size="17" font-weight="700" letter-spacing="6">RELPPS COSMÉTICOS</text>
<text x="120" y="260" fill="#3d2d23" font-family="Georgia" font-size="78" font-weight="700">Seu espaço. Seu padrão.</text><text x="120" y="345" fill="#8d6732" font-family="Georgia" font-size="78" font-style="italic">Uma curadoria profissional feita para elevar seus resultados.</text>
<text x="124" y="405" fill="#6e6258" font-family="Arial" font-size="20">Produtos selecionados para profissionais que valorizam</text><text x="124" y="436" fill="#6e6258" font-family="Arial" font-size="20">qualidade, acabamento e resultado.</text>
<rect x="124" y="478" width="190" height="54" fill="#b98a3d"/><text x="219" y="513" text-anchor="middle" fill="#fff" font-family="Arial" font-size="13" font-weight="700" letter-spacing="1">COMPRAR AGORA</text>
<g transform="translate(1040 155) rotate(-8)"><rect x="0" y="110" width="105" height="330" rx="27" fill="url(#gold)"/><rect x="18" y="70" width="69" height="65" rx="10" fill="#43352a"/><text x="53" y="310" text-anchor="middle" fill="#fff" font-family="Georgia" font-size="19" font-weight="700" transform="rotate(-90 53 310)">RELPPS</text></g>
<g transform="translate(1280 245) rotate(8)"><rect x="0" y="95" width="105" height="285" rx="27" fill="url(#gold)"/><rect x="18" y="55" width="69" height="65" rx="10" fill="#43352a"/></g>
<g transform="translate(1130 470)"><ellipse cx="115" cy="20" rx="125" ry="28" fill="#f5eee4"/><path d="M0 20v75q115 50 230 0V20" fill="#a99885"/><text x="115" y="72" text-anchor="middle" fill="#fff" font-family="Georgia" font-size="25" font-weight="700">GEL</text></g>
</svg>
